<svg width="159" height="204" viewBox="0 0 159 204" fill="none" xmlns="http://www.w3.org/2000/svg">
<path d="M19.845 45.4895C26.2447 58.1955 33.744 69.9696 42.1296 80.6341C46.3224 85.9663 50.7534 90.9753 55.3526 95.6624C59.703 100.127 64.2234 104.361 68.9766 107.998C73.411 111.414 78.148 114.233 83.2054 115.589C87.876 116.816 92.6217 116.541 97.1219 114.449C101.31 112.501 105.08 108.786 107.108 103.604C109.139 98.5125 109.367 92.4103 108.488 86.785C107.414 80.208 104.853 74.3429 101.676 69.1271C98.2081 63.371 94.0529 58.1745 89.8709 53.3881C85.9736 48.8691 81.5606 44.7699 76.428 43.1422C72.1388 41.7708 67.4648 42.1363 63.7562 45.3949C56.0634 52.0998 56.7004 66.6489 58.7213 76.9841C59.9665 83.4213 61.9406 89.6165 64.0865 95.6718C66.3417 101.952 68.8727 108.046 71.6436 113.907C77.2929 125.763 83.834 136.782 90.889 147.291C98.0157 157.889 105.551 167.933 113.222 177.793C115.086 180.213 116.986 182.679 118.885 185.053C120.031 186.486 118.33 188.795 117.184 187.362C109.155 177.054 101.161 166.792 93.576 155.975C86.0267 145.203 78.8517 133.923 72.6382 121.805C66.4982 109.867 61.318 97.0006 57.6617 83.4668C56.0405 77.4467 55.0049 71.0054 54.9828 64.5896C54.968 58.5377 55.9273 52.2846 58.7295 47.3601C61.5658 42.3894 66.0874 39.6152 70.7973 39.2946C75.8563 38.967 80.8619 41.2343 85.1244 44.7905C90.0961 48.8787 94.3624 54.3915 98.4531 59.8622C102.508 65.2882 106.364 71.2642 108.808 78.2237C110.807 83.9178 111.805 90.2233 111.3 96.513C110.796 102.803 108.5 108.627 104.772 112.66C101.01 116.739 96.268 118.971 91.4239 119.568C86.2323 120.262 81.0334 118.817 76.1639 116.365C71.1171 113.78 66.4338 110.142 61.9528 106.135C56.9738 101.683 52.1973 96.8624 47.589 91.7204C38.3707 81.3455 30.0692 69.6327 22.8295 56.8524C21.0563 53.7476 19.3512 50.5504 17.7499 47.3057C16.8382 45.367 18.9709 43.6866 19.845 45.4895Z" fill="#E98100"/>
<path d="M95.8104 183.267C99.806 183.371 103.735 183.658 107.702 184.082C109.668 184.317 111.635 184.552 113.603 184.878C114.587 185.041 115.605 185.158 116.625 185.366C117.293 185.489 118.103 185.701 118.726 185.324C118.563 185.92 118.365 186.563 118.166 187.115C115.358 177.998 112.621 168.88 109.813 159.764C109.587 158.947 110.059 158.025 110.65 157.785C111.345 157.498 111.952 158.079 112.178 158.896C114.986 168.012 117.723 177.13 120.531 186.247C120.754 186.881 120.421 187.8 119.971 188.037C118.243 189.258 116.054 188.389 114.192 188.106C112.224 187.78 110.187 187.546 108.221 187.311C104.078 186.846 99.975 186.607 95.8736 186.46C94.261 186.401 94.1979 183.208 95.8104 183.267Z" fill="#E98100"/>
</svg>
